<svg xmlns="http://www.w3.org/2000/svg" width="512" height="512" viewBox="0 0 512 512"><path fill="#333" d="M462 128.223c-15.158 6.724-31.45 11.27-48.547 13.31 17.45-10.46 30.854-27.025 37.164-46.764-16.333 9.686-34.422 16.72-53.676 20.51-15.417-16.428-37.385-26.69-61.697-26.69-54.56 0-94.668 50.915-82.337 103.786-70.25-3.524-132.534-37.177-174.223-88.314-22.142 37.983-11.485 87.69 26.158 112.85-13.853-.438-26.89-4.24-38.284-10.574-.917 39.162 27.146 75.78 67.795 83.95-11.895 3.236-24.925 3.977-38.17 1.446 10.755 33.58 41.973 58.018 78.96 58.7C139.605 378.28 94.847 390.72 50 385.435c37.406 23.982 81.837 37.977 129.57 37.977 156.933 0 245.596-132.55 240.252-251.435 16.517-11.917 30.846-26.804 42.178-43.755z"/></svg>